solid OpenSCAD_Model
  facet normal -1 0 0
    outer loop
      vertex -10 -5 0
      vertex -10 -5 1
      vertex -10 35 0
    endloop
  endfacet
  facet normal -1 0 0
    outer loop
      vertex -10 35 0
      vertex -10 -5 1
      vertex -10 35 1
    endloop
  endfacet
  facet normal 0 -1 0
    outer loop
      vertex -10 -5 1
      vertex -10 -5 0
      vertex 15 -5 0
    endloop
  endfacet
  facet normal 0 -1 0
    outer loop
      vertex 15 -5 1
      vertex -10 -5 1
      vertex 15 -5 0
    endloop
  endfacet
  facet normal 0 0 -1
    outer loop
      vertex -10 -5 0
      vertex -10 35 0
      vertex 15 -5 0
    endloop
  endfacet
  facet normal 0 0 -1
    outer loop
      vertex 15 -5 0
      vertex -10 35 0
      vertex 15 35 0
    endloop
  endfacet
  facet normal 0 1 0
    outer loop
      vertex -10 35 0
      vertex -10 35 1
      vertex 15 35 0
    endloop
  endfacet
  facet normal 0 1 0
    outer loop
      vertex 15 35 0
      vertex -10 35 1
      vertex 15 35 1
    endloop
  endfacet
  facet normal 0 0 1
    outer loop
      vertex -3 0 1
      vertex -10 -5 1
      vertex 15 -5 1
    endloop
  endfacet
  facet normal 0 0 1
    outer loop
      vertex 0 0 1
      vertex -3 0 1
      vertex 15 -5 1
    endloop
  endfacet
  facet normal 0 0 1
    outer loop
      vertex -10 35 1
      vertex -10 -5 1
      vertex -3 0 1
    endloop
  endfacet
  facet normal 0 0 1
    outer loop
      vertex 15 35 1
      vertex -10 35 1
      vertex -3 30 1
    endloop
  endfacet
  facet normal 0 0 1
    outer loop
      vertex 15 35 1
      vertex 0 30 1
      vertex 15 -5 1
    endloop
  endfacet
  facet normal 0 0 1
    outer loop
      vertex 15 35 1
      vertex -3 30 1
      vertex 0 30 1
    endloop
  endfacet
  facet normal 0 0 1
    outer loop
      vertex 0 30 1
      vertex 0 0 1
      vertex 15 -5 1
    endloop
  endfacet
  facet normal 0 0 1
    outer loop
      vertex -3 0 1
      vertex -3 30 1
      vertex -10 35 1
    endloop
  endfacet
  facet normal 1 0 0
    outer loop
      vertex 15 -5 1
      vertex 15 -5 0
      vertex 15 35 0
    endloop
  endfacet
  facet normal 1 0 0
    outer loop
      vertex 15 35 1
      vertex 15 -5 1
      vertex 15 35 0
    endloop
  endfacet
  facet normal -1 0 0
    outer loop
      vertex -3 27 22
      vertex -3 30 1
      vertex -3 2 22
    endloop
  endfacet
  facet normal -1 0 0
    outer loop
      vertex -3 2 47
      vertex -3 0 50
      vertex -3 30 50
    endloop
  endfacet
  facet normal -1 0 0
    outer loop
      vertex -3 27 47
      vertex -3 2 47
      vertex -3 30 50
    endloop
  endfacet
  facet normal -1 0 0
    outer loop
      vertex -3 0 1
      vertex -3 0 50
      vertex -3 2 22
    endloop
  endfacet
  facet normal -1 0 0
    outer loop
      vertex -3 0 1
      vertex -3 2 22
      vertex -3 30 1
    endloop
  endfacet
  facet normal -1 0 0
    outer loop
      vertex -3 30 1
      vertex -3 27 22
      vertex -3 30 50
    endloop
  endfacet
  facet normal -1 0 0
    outer loop
      vertex -3 27 22
      vertex -3 27 47
      vertex -3 30 50
    endloop
  endfacet
  facet normal -1 0 0
    outer loop
      vertex -3 2 22
      vertex -3 0 50
      vertex -3 2 47
    endloop
  endfacet
  facet normal 0 -1 0
    outer loop
      vertex -3 0 50
      vertex -3 0 1
      vertex 0 0 1
    endloop
  endfacet
  facet normal 0 -1 0
    outer loop
      vertex 0 0 50
      vertex -3 0 50
      vertex 0 0 1
    endloop
  endfacet
  facet normal 1 0 0
    outer loop
      vertex 0 10 28
      vertex 0 0 1
      vertex 0 30 1
    endloop
  endfacet
  facet normal 1 0 0
    outer loop
      vertex 0 0 50
      vertex 0 0 1
      vertex 0 10 28
    endloop
  endfacet
  facet normal 1 0 0
    outer loop
      vertex 0 30 50
      vertex 0 0 50
      vertex 0 10 47
    endloop
  endfacet
  facet normal 1 0 0
    outer loop
      vertex 0 30 50
      vertex 0 19 47
      vertex 0 30 1
    endloop
  endfacet
  facet normal 1 0 0
    outer loop
      vertex 0 30 50
      vertex 0 10 47
      vertex 0 19 47
    endloop
  endfacet
  facet normal 1 0 0
    outer loop
      vertex 0 19 47
      vertex 0 19 28
      vertex 0 30 1
    endloop
  endfacet
  facet normal 1 0 0
    outer loop
      vertex 0 10 28
      vertex 0 10 47
      vertex 0 0 50
    endloop
  endfacet
  facet normal 1 0 0
    outer loop
      vertex 0 19 28
      vertex 0 10 28
      vertex 0 30 1
    endloop
  endfacet
  facet normal 0 1 0
    outer loop
      vertex -3 30 1
      vertex -3 30 50
      vertex 0 30 1
    endloop
  endfacet
  facet normal 0 1 0
    outer loop
      vertex 0 30 1
      vertex -3 30 50
      vertex 0 30 50
    endloop
  endfacet
  facet normal 0 0 1
    outer loop
      vertex -3 30 50
      vertex -3 0 50
      vertex 0 0 50
    endloop
  endfacet
  facet normal 0 0 1
    outer loop
      vertex 0 30 50
      vertex -3 30 50
      vertex 0 0 50
    endloop
  endfacet
  facet normal 0 0 -1
    outer loop
      vertex -2.5 27 47
      vertex -2.5 19 47
      vertex -3 27 47
    endloop
  endfacet
  facet normal 0 0 -1
    outer loop
      vertex 0 10 47
      vertex -2.5 19 47
      vertex 0 19 47
    endloop
  endfacet
  facet normal 0 0 -1
    outer loop
      vertex -2.5 10 47
      vertex -2.5 19 47
      vertex 0 10 47
    endloop
  endfacet
  facet normal 0 0 -1
    outer loop
      vertex -3 27 47
      vertex -2.5 19 47
      vertex -2.5 10 47
    endloop
  endfacet
  facet normal 0 0 -1
    outer loop
      vertex -3 27 47
      vertex -2.5 10 47
      vertex -2.5 2 47
    endloop
  endfacet
  facet normal 0 0 -1
    outer loop
      vertex -3 27 47
      vertex -2.5 2 47
      vertex -3 2 47
    endloop
  endfacet
  facet normal 0 1 0
    outer loop
      vertex -2.5 2 47
      vertex -2.5 2 22
      vertex -3 2 47
    endloop
  endfacet
  facet normal 0 1 0
    outer loop
      vertex -3 2 47
      vertex -2.5 2 22
      vertex -3 2 22
    endloop
  endfacet
  facet normal 0 -1 0
    outer loop
      vertex -2.5 27 22
      vertex -2.5 27 47
      vertex -3 27 47
    endloop
  endfacet
  facet normal 0 -1 0
    outer loop
      vertex -3 27 22
      vertex -2.5 27 22
      vertex -3 27 47
    endloop
  endfacet
  facet normal 0 0 1
    outer loop
      vertex -2.5 2 22
      vertex -2.5 27 22
      vertex -3 27 22
    endloop
  endfacet
  facet normal 0 0 1
    outer loop
      vertex -3 2 22
      vertex -2.5 2 22
      vertex -3 27 22
    endloop
  endfacet
  facet normal 0 0 1
    outer loop
      vertex 0 10 28
      vertex 0 19 28
      vertex -2.5 19 28
    endloop
  endfacet
  facet normal 0 0 1
    outer loop
      vertex -2.5 10 28
      vertex 0 10 28
      vertex -2.5 19 28
    endloop
  endfacet
  facet normal 0 1 0
    outer loop
      vertex 0 10 47
      vertex 0 10 28
      vertex -2.5 10 47
    endloop
  endfacet
  facet normal 0 1 0
    outer loop
      vertex -2.5 10 47
      vertex 0 10 28
      vertex -2.5 10 28
    endloop
  endfacet
  facet normal 0 -1 0
    outer loop
      vertex 0 19 28
      vertex 0 19 47
      vertex -2.5 19 47
    endloop
  endfacet
  facet normal 0 -1 0
    outer loop
      vertex -2.5 19 28
      vertex 0 19 28
      vertex -2.5 19 47
    endloop
  endfacet
  facet normal -1 0 0
    outer loop
      vertex -2.5 2 22
      vertex -2.5 10 28
      vertex -2.5 27 22
    endloop
  endfacet
  facet normal -1 0 0
    outer loop
      vertex -2.5 24.2867 43.2682
      vertex -2.5 19 28
      vertex -2.5 19 47
    endloop
  endfacet
  facet normal -1 0 0
    outer loop
      vertex -2.5 25.4408 44.1068
      vertex -2.5 27 47
      vertex -2.5 25.7133 43.2682
    endloop
  endfacet
  facet normal -1 0 0
    outer loop
      vertex -2.5 10 28
      vertex -2.5 19 28
      vertex -2.5 27 22
    endloop
  endfacet
  facet normal -1 0 0
    outer loop
      vertex -2.5 4 30.25
      vertex -2.5 10 28
      vertex -2.5 2 22
    endloop
  endfacet
  facet normal -1 0 0
    outer loop
      vertex -2.5 3.28671 43.2682
      vertex -2.5 2 47
      vertex -2.5 3.55916 44.1068
    endloop
  endfacet
  facet normal -1 0 0
    outer loop
      vertex -2.5 2 47
      vertex -2.5 3.28671 30.7682
      vertex -2.5 2 22
    endloop
  endfacet
  facet normal -1 0 0
    outer loop
      vertex -2.5 4 42.75
      vertex -2.5 10 28
      vertex -2.5 3.28671 43.2682
    endloop
  endfacet
  facet normal -1 0 0
    outer loop
      vertex -2.5 3.28671 30.7682
      vertex -2.5 4 30.25
      vertex -2.5 2 22
    endloop
  endfacet
  facet normal -1 0 0
    outer loop
      vertex -2.5 3.28671 43.2682
      vertex -2.5 10 28
      vertex -2.5 4.71329 30.7682
    endloop
  endfacet
  facet normal -1 0 0
    outer loop
      vertex -2.5 2 47
      vertex -2.5 4.71329 30.7682
      vertex -2.5 4.44084 31.6068
    endloop
  endfacet
  facet normal -1 0 0
    outer loop
      vertex -2.5 2 47
      vertex -2.5 4.44084 31.6068
      vertex -2.5 3.55916 31.6068
    endloop
  endfacet
  facet normal -1 0 0
    outer loop
      vertex -2.5 2 47
      vertex -2.5 3.55916 31.6068
      vertex -2.5 3.28671 30.7682
    endloop
  endfacet
  facet normal -1 0 0
    outer loop
      vertex -2.5 3.55916 44.1068
      vertex -2.5 2 47
      vertex -2.5 4.44084 44.1068
    endloop
  endfacet
  facet normal -1 0 0
    outer loop
      vertex -2.5 2 47
      vertex -2.5 3.28671 43.2682
      vertex -2.5 4.71329 30.7682
    endloop
  endfacet
  facet normal -1 0 0
    outer loop
      vertex -2.5 10 47
      vertex -2.5 10 28
      vertex -2.5 4 42.75
    endloop
  endfacet
  facet normal -1 0 0
    outer loop
      vertex -2.5 10 47
      vertex -2.5 4 42.75
      vertex -2.5 4.71329 43.2682
    endloop
  endfacet
  facet normal -1 0 0
    outer loop
      vertex -2.5 10 47
      vertex -2.5 4.71329 43.2682
      vertex -2.5 4.44084 44.1068
    endloop
  endfacet
  facet normal -1 0 0
    outer loop
      vertex -2.5 10 47
      vertex -2.5 4.44084 44.1068
      vertex -2.5 2 47
    endloop
  endfacet
  facet normal -1 0 0
    outer loop
      vertex -2.5 24.5592 31.6068
      vertex -2.5 27 47
      vertex -2.5 25.4408 31.6068
    endloop
  endfacet
  facet normal -1 0 0
    outer loop
      vertex -2.5 27 22
      vertex -2.5 19 28
      vertex -2.5 24.2867 30.7682
    endloop
  endfacet
  facet normal -1 0 0
    outer loop
      vertex -2.5 24.5592 31.6068
      vertex -2.5 24.2867 30.7682
      vertex -2.5 27 47
    endloop
  endfacet
  facet normal -1 0 0
    outer loop
      vertex -2.5 27 22
      vertex -2.5 24.2867 30.7682
      vertex -2.5 25 30.25
    endloop
  endfacet
  facet normal -1 0 0
    outer loop
      vertex -2.5 27 22
      vertex -2.5 25 30.25
      vertex -2.5 25.7133 30.7682
    endloop
  endfacet
  facet normal -1 0 0
    outer loop
      vertex -2.5 27 22
      vertex -2.5 25.7133 30.7682
      vertex -2.5 27 47
    endloop
  endfacet
  facet normal -1 0 0
    outer loop
      vertex -2.5 25.7133 30.7682
      vertex -2.5 25.4408 31.6068
      vertex -2.5 27 47
    endloop
  endfacet
  facet normal -1 0 0
    outer loop
      vertex -2.5 25.7133 43.2682
      vertex -2.5 19 28
      vertex -2.5 25 42.75
    endloop
  endfacet
  facet normal -1 0 0
    outer loop
      vertex -2.5 25 42.75
      vertex -2.5 19 28
      vertex -2.5 24.2867 43.2682
    endloop
  endfacet
  facet normal -1 0 0
    outer loop
      vertex -2.5 24.5592 44.1068
      vertex -2.5 24.2867 43.2682
      vertex -2.5 19 47
    endloop
  endfacet
  facet normal -1 0 0
    outer loop
      vertex -2.5 24.2867 30.7682
      vertex -2.5 19 28
      vertex -2.5 25.7133 43.2682
    endloop
  endfacet
  facet normal -1 0 0
    outer loop
      vertex -2.5 24.2867 30.7682
      vertex -2.5 25.7133 43.2682
      vertex -2.5 27 47
    endloop
  endfacet
  facet normal -1 0 0
    outer loop
      vertex -2.5 24.5592 44.1068
      vertex -2.5 27 47
      vertex -2.5 25.4408 44.1068
    endloop
  endfacet
  facet normal -1 0 0
    outer loop
      vertex -2.5 27 47
      vertex -2.5 24.5592 44.1068
      vertex -2.5 19 47
    endloop
  endfacet
  facet normal -1 0 0
    outer loop
      vertex -2.5 4.71329 30.7682
      vertex -2.5 10 28
      vertex -2.5 4 30.25
    endloop
  endfacet
  facet normal -6.86154e-017 -0.951057 0.309016
    outer loop
      vertex -2.5 3.55916 31.6068
      vertex -5 3.55916 31.6068
      vertex -5 3.28671 30.7682
    endloop
  endfacet
  facet normal -6.86154e-017 -0.951057 0.309016
    outer loop
      vertex -2.5 3.28671 30.7682
      vertex -2.5 3.55916 31.6068
      vertex -5 3.28671 30.7682
    endloop
  endfacet
  facet normal 1.79638e-016 -0.587785 -0.809017
    outer loop
      vertex -5 3.28671 30.7682
      vertex -5 4 30.25
      vertex -2.5 3.28671 30.7682
    endloop
  endfacet
  facet normal 1.79638e-016 -0.587785 -0.809017
    outer loop
      vertex -2.5 3.28671 30.7682
      vertex -5 4 30.25
      vertex -2.5 4 30.25
    endloop
  endfacet
  facet normal -2.22045e-016 0 1
    outer loop
      vertex -5 4.44084 31.6068
      vertex -5 3.55916 31.6068
      vertex -2.5 3.55916 31.6068
    endloop
  endfacet
  facet normal -2.22045e-016 0 1
    outer loop
      vertex -2.5 4.44084 31.6068
      vertex -5 4.44084 31.6068
      vertex -2.5 3.55916 31.6068
    endloop
  endfacet
  facet normal -6.86154e-017 0.951057 0.309016
    outer loop
      vertex -5 4.44084 31.6068
      vertex -2.5 4.44084 31.6068
      vertex -5 4.71329 30.7682
    endloop
  endfacet
  facet normal -6.86154e-017 0.951057 0.309016
    outer loop
      vertex -5 4.71329 30.7682
      vertex -2.5 4.44084 31.6068
      vertex -2.5 4.71329 30.7682
    endloop
  endfacet
  facet normal 1.79638e-016 0.587785 -0.809017
    outer loop
      vertex -5 4.71329 30.7682
      vertex -2.5 4.71329 30.7682
      vertex -5 4 30.25
    endloop
  endfacet
  facet normal 1.79638e-016 0.587785 -0.809017
    outer loop
      vertex -5 4 30.25
      vertex -2.5 4.71329 30.7682
      vertex -2.5 4 30.25
    endloop
  endfacet
  facet normal -6.86154e-017 -0.951057 0.309016
    outer loop
      vertex -2.5 3.55916 44.1068
      vertex -5 3.55916 44.1068
      vertex -5 3.28671 43.2682
    endloop
  endfacet
  facet normal -6.86154e-017 -0.951057 0.309016
    outer loop
      vertex -2.5 3.28671 43.2682
      vertex -2.5 3.55916 44.1068
      vertex -5 3.28671 43.2682
    endloop
  endfacet
  facet normal 1.79638e-016 -0.587785 -0.809017
    outer loop
      vertex -5 3.28671 43.2682
      vertex -5 4 42.75
      vertex -2.5 3.28671 43.2682
    endloop
  endfacet
  facet normal 1.79638e-016 -0.587785 -0.809017
    outer loop
      vertex -2.5 3.28671 43.2682
      vertex -5 4 42.75
      vertex -2.5 4 42.75
    endloop
  endfacet
  facet normal -2.22045e-016 0 1
    outer loop
      vertex -5 4.44084 44.1068
      vertex -5 3.55916 44.1068
      vertex -2.5 3.55916 44.1068
    endloop
  endfacet
  facet normal -2.22045e-016 0 1
    outer loop
      vertex -2.5 4.44084 44.1068
      vertex -5 4.44084 44.1068
      vertex -2.5 3.55916 44.1068
    endloop
  endfacet
  facet normal -6.86154e-017 0.951057 0.309016
    outer loop
      vertex -5 4.44084 44.1068
      vertex -2.5 4.44084 44.1068
      vertex -5 4.71329 43.2682
    endloop
  endfacet
  facet normal -6.86154e-017 0.951057 0.309016
    outer loop
      vertex -5 4.71329 43.2682
      vertex -2.5 4.44084 44.1068
      vertex -2.5 4.71329 43.2682
    endloop
  endfacet
  facet normal 1.79638e-016 0.587785 -0.809017
    outer loop
      vertex -5 4.71329 43.2682
      vertex -2.5 4.71329 43.2682
      vertex -5 4 42.75
    endloop
  endfacet
  facet normal 1.79638e-016 0.587785 -0.809017
    outer loop
      vertex -5 4 42.75
      vertex -2.5 4.71329 43.2682
      vertex -2.5 4 42.75
    endloop
  endfacet
  facet normal -6.86154e-017 -0.951057 0.309016
    outer loop
      vertex -2.5 24.5592 31.6068
      vertex -5 24.5592 31.6068
      vertex -5 24.2867 30.7682
    endloop
  endfacet
  facet normal -6.86154e-017 -0.951057 0.309016
    outer loop
      vertex -2.5 24.2867 30.7682
      vertex -2.5 24.5592 31.6068
      vertex -5 24.2867 30.7682
    endloop
  endfacet
  facet normal 1.79638e-016 -0.587785 -0.809017
    outer loop
      vertex -5 24.2867 30.7682
      vertex -5 25 30.25
      vertex -2.5 24.2867 30.7682
    endloop
  endfacet
  facet normal 1.79638e-016 -0.587785 -0.809017
    outer loop
      vertex -2.5 24.2867 30.7682
      vertex -5 25 30.25
      vertex -2.5 25 30.25
    endloop
  endfacet
  facet normal -2.22045e-016 0 1
    outer loop
      vertex -5 25.4408 31.6068
      vertex -5 24.5592 31.6068
      vertex -2.5 24.5592 31.6068
    endloop
  endfacet
  facet normal -2.22045e-016 0 1
    outer loop
      vertex -2.5 25.4408 31.6068
      vertex -5 25.4408 31.6068
      vertex -2.5 24.5592 31.6068
    endloop
  endfacet
  facet normal -6.86154e-017 0.951057 0.309016
    outer loop
      vertex -5 25.4408 31.6068
      vertex -2.5 25.4408 31.6068
      vertex -5 25.7133 30.7682
    endloop
  endfacet
  facet normal -6.86154e-017 0.951057 0.309016
    outer loop
      vertex -5 25.7133 30.7682
      vertex -2.5 25.4408 31.6068
      vertex -2.5 25.7133 30.7682
    endloop
  endfacet
  facet normal 1.79638e-016 0.587785 -0.809017
    outer loop
      vertex -5 25.7133 30.7682
      vertex -2.5 25.7133 30.7682
      vertex -5 25 30.25
    endloop
  endfacet
  facet normal 1.79638e-016 0.587785 -0.809017
    outer loop
      vertex -5 25 30.25
      vertex -2.5 25.7133 30.7682
      vertex -2.5 25 30.25
    endloop
  endfacet
  facet normal -6.86154e-017 -0.951057 0.309016
    outer loop
      vertex -2.5 24.5592 44.1068
      vertex -5 24.5592 44.1068
      vertex -5 24.2867 43.2682
    endloop
  endfacet
  facet normal -6.86154e-017 -0.951057 0.309016
    outer loop
      vertex -2.5 24.2867 43.2682
      vertex -2.5 24.5592 44.1068
      vertex -5 24.2867 43.2682
    endloop
  endfacet
  facet normal 1.79638e-016 -0.587785 -0.809017
    outer loop
      vertex -5 24.2867 43.2682
      vertex -5 25 42.75
      vertex -2.5 24.2867 43.2682
    endloop
  endfacet
  facet normal 1.79638e-016 -0.587785 -0.809017
    outer loop
      vertex -2.5 24.2867 43.2682
      vertex -5 25 42.75
      vertex -2.5 25 42.75
    endloop
  endfacet
  facet normal -2.22045e-016 0 1
    outer loop
      vertex -5 25.4408 44.1068
      vertex -5 24.5592 44.1068
      vertex -2.5 24.5592 44.1068
    endloop
  endfacet
  facet normal -2.22045e-016 0 1
    outer loop
      vertex -2.5 25.4408 44.1068
      vertex -5 25.4408 44.1068
      vertex -2.5 24.5592 44.1068
    endloop
  endfacet
  facet normal -6.86154e-017 0.951057 0.309016
    outer loop
      vertex -5 25.4408 44.1068
      vertex -2.5 25.4408 44.1068
      vertex -5 25.7133 43.2682
    endloop
  endfacet
  facet normal -6.86154e-017 0.951057 0.309016
    outer loop
      vertex -5 25.7133 43.2682
      vertex -2.5 25.4408 44.1068
      vertex -2.5 25.7133 43.2682
    endloop
  endfacet
  facet normal 1.79638e-016 0.587785 -0.809017
    outer loop
      vertex -5 25.7133 43.2682
      vertex -2.5 25.7133 43.2682
      vertex -5 25 42.75
    endloop
  endfacet
  facet normal 1.79638e-016 0.587785 -0.809017
    outer loop
      vertex -5 25 42.75
      vertex -2.5 25.7133 43.2682
      vertex -2.5 25 42.75
    endloop
  endfacet
  facet normal -1 0 -1.77321e-016
    outer loop
      vertex -5 3.55916 31.6068
      vertex -5 4.44084 31.6068
      vertex -5 3.28671 30.7682
    endloop
  endfacet
  facet normal -1 0 -1.77321e-016
    outer loop
      vertex -5 3.28671 30.7682
      vertex -5 4.44084 31.6068
      vertex -5 4.71329 30.7682
    endloop
  endfacet
  facet normal -1 0 -1.77321e-016
    outer loop
      vertex -5 3.28671 30.7682
      vertex -5 4.71329 30.7682
      vertex -5 4 30.25
    endloop
  endfacet
  facet normal -1 0 -1.77321e-016
    outer loop
      vertex -5 3.55916 44.1068
      vertex -5 4.44084 44.1068
      vertex -5 3.28671 43.2682
    endloop
  endfacet
  facet normal -1 0 -1.77321e-016
    outer loop
      vertex -5 3.28671 43.2682
      vertex -5 4.44084 44.1068
      vertex -5 4.71329 43.2682
    endloop
  endfacet
  facet normal -1 0 -1.77321e-016
    outer loop
      vertex -5 3.28671 43.2682
      vertex -5 4.71329 43.2682
      vertex -5 4 42.75
    endloop
  endfacet
  facet normal -1 0 -1.77321e-016
    outer loop
      vertex -5 24.5592 31.6068
      vertex -5 25.4408 31.6068
      vertex -5 24.2867 30.7682
    endloop
  endfacet
  facet normal -1 0 -1.77321e-016
    outer loop
      vertex -5 24.2867 30.7682
      vertex -5 25.4408 31.6068
      vertex -5 25.7133 30.7682
    endloop
  endfacet
  facet normal -1 0 -1.77321e-016
    outer loop
      vertex -5 24.2867 30.7682
      vertex -5 25.7133 30.7682
      vertex -5 25 30.25
    endloop
  endfacet
  facet normal -1 0 -1.77321e-016
    outer loop
      vertex -5 24.5592 44.1068
      vertex -5 25.4408 44.1068
      vertex -5 24.2867 43.2682
    endloop
  endfacet
  facet normal -1 0 -1.77321e-016
    outer loop
      vertex -5 24.2867 43.2682
      vertex -5 25.4408 44.1068
      vertex -5 25.7133 43.2682
    endloop
  endfacet
  facet normal -1 0 -1.77321e-016
    outer loop
      vertex -5 24.2867 43.2682
      vertex -5 25.7133 43.2682
      vertex -5 25 42.75
    endloop
  endfacet
endsolid OpenSCAD_Model
